<?xml version="1.0" standalone="no"?>
<!DOCTYPE svg PUBLIC "-//W3C//DTD SVG 20010904//EN"
 "http://www.w3.org/TR/2001/REC-SVG-20010904/DTD/svg10.dtd">
<svg version="1.0" xmlns="http://www.w3.org/2000/svg"
 width="178.000000pt" height="178.000000pt" viewBox="0 0 178.000000 178.000000"
 preserveAspectRatio="xMidYMid meet">
<metadata>
Created by potrace 1.11, written by Peter Selinger 2001-2013
</metadata>
<g transform="translate(0.000000,178.000000) scale(0.100000,-0.100000)"
fill="#000000" stroke="none">
<path d="M1096 1441 c-3 -5 -20 -11 -38 -14 -18 -2 -85 -23 -148 -47 -63 -23
-122 -44 -132 -47 -9 -3 -31 9 -54 31 -21 20 -45 36 -54 36 -23 0 -320 -299
-320 -321 0 -10 10 -28 23 -40 16 -16 4 -12 -46 14 -37 21 -77 37 -87 37 -26
0 -75 -77 -229 -358 -9 -16 -10 -31 -5 -40 7 -11 289 -182 301 -182 2 0 22
-12 45 -26 65 -41 140 -83 176 -100 41 -18 32 -28 134 148 40 71 76 128 79
128 4 0 18 -9 32 -20 32 -25 37 -25 66 5 13 14 34 25 46 25 13 0 59 14 102 30
42 17 81 30 84 30 4 0 10 -19 14 -42 8 -47 12 -71 19 -105 3 -11 8 -42 11 -67
10 -65 21 -71 108 -58 100 15 138 22 164 27 31 7 250 45 298 52 22 3 53 12 68
20 31 16 31 24 7 143 -5 25 -11 59 -14 75 -5 35 -17 103 -21 125 -2 8 -7 37
-11 63 -4 29 -13 51 -22 55 -13 4 -95 -6 -187 -24 -11 -2 -39 -7 -63 -10 -40
-5 -42 -4 -33 13 32 57 103 221 104 241 1 13 -5 28 -13 33 -18 11 -246 119
-326 154 -62 28 -70 29 -78 16z m116 -440 c15 -14 -23 -51 -52 -51 -38 0 -46
15 -25 46 13 21 22 24 43 19 15 -3 30 -10 34 -14z m196 -124 c6 -6 13 -24 17
-39 5 -21 2 -30 -19 -43 -52 -35 -91 1 -63 59 17 37 45 47 65 23z"/>
</g>
</svg>
